<svg width="65" height="49" viewBox="0 0 65 49" version="1.1" xmlns="http://www.w3.org/2000/svg" xmlns:xlink="http://www.w3.org/1999/xlink">
<title>Vector</title>
<desc>Created using Figma</desc>
<g id="Canvas" transform="translate(-179 -544)">
<g id="Vector">
<use xlink:href="#path0_fill" transform="matrix(0.972427 -0.233209 0.233209 0.972427 179 557.348)" fill="#525252"/>
</g>
</g>
<defs>
<linearGradient id="paint0_linear" x1="0" y1="0" x2="1" y2="0" gradientUnits="userSpaceOnUse" gradientTransform="matrix(57.2365 0 0 36.1135 0 -18.0567)">
<stop offset="0" stop-color="#6089F7"/>
<stop offset="1" stop-color="#B166ED"/>
</linearGradient>
<path id="path0_fill" d="M 38.963 10.391C 39.0345 12.6806 38.3651 14.9322 37.0541 16.8122C 35.7431 18.6922 33.8602 20.1005 31.6844 20.8285C 31.6844 20.8285 31.3707 20.9386 31.3707 21.1242L 31.3707 23.6176C 31.3707 24.4465 31.0408 25.2415 30.4537 25.8276C 29.8665 26.4137 29.0701 26.743 28.2397 26.743C 27.4093 26.743 26.6129 26.4137 26.0257 25.8276C 25.4386 25.2415 25.1087 24.4465 25.1087 23.6176L 25.1087 21.1242C 25.1229 19.7416 25.571 18.3982 26.39 17.2831C 27.2091 16.168 28.3578 15.3374 29.6745 14.9081C 30.5726 14.6004 31.3485 14.0141 31.8888 13.2347C 32.4291 12.4554 32.7056 11.524 32.6777 10.5766C 32.616 9.42091 32.1166 8.33183 31.2808 7.52978C 30.445 6.72774 29.3351 6.27266 28.1758 6.25666C 27.3451 6.26485 26.5335 6.5056 25.8331 6.95152C 25.1327 7.39744 24.5718 8.03062 24.2141 8.77903C 23.8536 9.52644 23.2104 10.1003 22.4261 10.3743C 21.6417 10.6484 20.7804 10.6001 20.0317 10.2403C 19.283 9.88041 18.7081 9.23838 18.4336 8.45542C 18.159 7.67246 18.2073 6.81271 18.5678 6.0653C 19.4321 4.25543 20.7907 2.72595 22.4874 1.65292C 24.1841 0.579894 26.1498 0.00693616 28.1584 3.53917e-07L 28.2223 3.53917e-07C 31.0092 0.0160279 33.6822 1.10583 35.6835 3.04197C 37.6848 4.9781 38.8597 7.61095 38.963 10.391ZM 28.2397 29.8278C 27.617 29.8278 27.0083 30.0122 26.4905 30.3575C 25.9728 30.7028 25.5692 31.1937 25.3309 31.768C 25.0926 32.3422 25.0303 32.9742 25.1518 33.5838C 25.2732 34.1934 25.5731 34.7534 26.0134 35.193C 26.4537 35.6325 27.0147 35.9318 27.6255 36.0531C 28.2362 36.1744 28.8693 36.1121 29.4446 35.8743C 30.0199 35.6364 30.5116 35.2336 30.8575 34.7167C 31.2035 34.1999 31.3881 33.5923 31.3881 32.9707C 31.3881 32.5579 31.3067 32.1493 31.1485 31.768C 30.9903 31.3867 30.7583 31.0402 30.466 30.7484C 30.1736 30.4565 29.8265 30.225 29.4446 30.0671C 29.0626 29.9091 28.6532 29.8278 28.2397 29.8278ZM 49.39 4.89399L 49.3435 4.89399C 47.8831 4.90236 46.4546 5.32129 45.2217 6.10277C 43.9888 6.88425 43.0015 7.99666 42.3728 9.3125C 42.2355 9.5829 42.1537 9.87791 42.1321 10.1803C 42.1105 10.4826 42.1495 10.7862 42.2469 11.0734C 42.3443 11.3605 42.498 11.6253 42.6992 11.8524C 42.9004 12.0794 43.145 12.2641 43.4186 12.3957C 43.6922 12.5272 43.9893 12.6029 44.2926 12.6184C 44.5958 12.6339 44.8991 12.5888 45.1848 12.4858C 45.4704 12.3829 45.7325 12.224 45.9559 12.0187C 46.1792 11.8133 46.3593 11.5655 46.4855 11.2898C 46.7476 10.7419 47.1591 10.2788 47.6728 9.95366C 48.1866 9.62854 48.7817 9.45455 49.39 9.45167C 50.2353 9.4623 51.0449 9.79362 51.6545 10.3784C 52.264 10.9632 52.6278 11.7575 52.672 12.6003C 52.6958 13.2966 52.4939 13.982 52.0962 14.5545C 51.6985 15.127 51.1262 15.5561 50.4646 15.7779C 49.5052 16.0907 48.668 16.6957 48.071 17.5081C 47.4739 18.3204 47.147 19.2991 47.1361 20.3066L 47.1361 22.1157C 47.1361 22.7201 47.3766 23.2998 47.8048 23.7271C 48.2329 24.1545 48.8136 24.3946 49.419 24.3946C 50.0245 24.3946 50.6051 24.1545 51.0333 23.7271C 51.4614 23.2998 51.7019 22.7201 51.7019 22.1157L 51.7019 20.3124C 51.7019 20.179 51.9285 20.0978 51.9285 20.0978C 53.5173 19.5667 54.8919 18.5375 55.8475 17.1636C 56.8031 15.7896 57.2887 14.1444 57.232 12.4727C 57.157 10.444 56.2989 8.52289 54.8373 7.11138C 53.3756 5.69988 51.4237 4.90739 49.39 4.89979L 49.39 4.89399ZM 49.39 26.627C 48.9362 26.627 48.4925 26.7614 48.1152 27.013C 47.7379 27.2647 47.4438 27.6224 47.2701 28.041C 47.0964 28.4595 47.051 28.92 47.1395 29.3643C 47.2281 29.8086 47.4466 30.2167 47.7675 30.537C 48.0884 30.8574 48.4972 31.0755 48.9423 31.1639C 49.3874 31.2523 49.8488 31.2069 50.2681 31.0336C 50.6873 30.8602 51.0457 30.5666 51.2978 30.19C 51.5499 29.8133 51.6845 29.3705 51.6845 28.9175C 51.6755 28.3153 51.4323 27.7403 51.0063 27.3139C 50.5802 26.8875 50.0048 26.6433 49.4016 26.6328L 49.39 26.627ZM 7.26369 4.89979L 7.21722 4.89979C 5.75681 4.90816 4.32831 5.32709 3.09543 6.10857C 1.86256 6.89005 0.875199 8.00246 0.246515 9.3183C 0.109257 9.58869 0.0274197 9.88371 0.00579562 10.1861C -0.0158285 10.4884 0.0231951 10.792 0.120581 11.0792C 0.217968 11.3663 0.37176 11.6311 0.572952 11.8582C 0.774145 12.0852 1.01869 12.2699 1.29228 12.4015C 1.56587 12.533 1.863 12.6087 2.16627 12.6242C 2.46954 12.6397 2.77286 12.5946 3.05847 12.4916C 3.34408 12.3887 3.60623 12.2298 3.82959 12.0245C 4.05294 11.8191 4.233 11.5713 4.35923 11.2956C 4.62076 10.7472 5.03214 10.2838 5.54599 9.95857C 6.05985 9.63337 6.65527 9.45966 7.26369 9.45747C 8.10903 9.46809 8.91865 9.79942 9.5282 10.3842C 10.1377 10.969 10.5015 11.7633 10.5457 12.6061C 10.5695 13.3024 10.3676 13.9877 9.96988 14.5603C 9.57217 15.1328 8.99995 15.5619 8.33834 15.7837C 7.37888 16.0965 6.54176 16.7015 5.94471 17.5139C 5.34765 18.3262 5.0207 19.3049 5.00983 20.3124L 5.00983 22.1157C 5.00983 22.415 5.06888 22.7113 5.18361 22.9878C 5.29833 23.2643 5.46649 23.5155 5.67848 23.7271C 5.89046 23.9387 6.14213 24.1066 6.4191 24.2211C 6.69608 24.3356 6.99294 24.3946 7.29273 24.3946C 7.59253 24.3946 7.88939 24.3356 8.16636 24.2211C 8.44334 24.1066 8.69501 23.9387 8.90699 23.7271C 9.11898 23.5155 9.28714 23.2643 9.40187 22.9878C 9.51659 22.7113 9.57564 22.415 9.57564 22.1157L 9.57564 20.3124C 9.57564 20.179 9.80219 20.0978 9.80219 20.0978C 11.3911 19.5667 12.7656 18.5375 13.7212 17.1636C 14.6768 15.7896 15.1624 14.1444 15.1057 12.4727C 15.0308 10.444 14.1726 8.52289 12.711 7.11138C 11.2493 5.69988 9.29738 4.90739 7.26369 4.89979ZM 7.26369 26.6328C 6.80988 26.6328 6.36625 26.7672 5.98892 27.0188C 5.61159 27.2705 5.31749 27.6282 5.14383 28.0468C 4.97016 28.4653 4.92472 28.9258 5.01326 29.3701C 5.10179 29.8144 5.32032 30.2225 5.64122 30.5428C 5.96211 30.8632 6.37096 31.0813 6.81605 31.1697C 7.26114 31.2581 7.7225 31.2127 8.14177 31.0393C 8.56104 30.866 8.91939 30.5724 9.17152 30.1958C 9.42364 29.8191 9.55821 29.3763 9.55821 28.9233C 9.55075 28.3201 9.3082 27.7436 8.882 27.316C 8.4558 26.8884 7.87949 26.6433 7.27531 26.6328L 7.26369 26.6328Z"/>
</defs>
</svg>
