<?xml version="1.0" encoding="utf-8"?>
<!-- Generator: Adobe Illustrator 21.1.0, SVG Export Plug-In . SVG Version: 6.00 Build 0)  -->
<svg version="1.1" id="Layer_1" xmlns="http://www.w3.org/2000/svg" xmlns:xlink="http://www.w3.org/1999/xlink" x="0px" y="0px"
	 viewBox="0 0 2309.9 2349" style="enable-background:new 0 0 2309.9 2349;" xml:space="preserve">
<style type="text/css">
	.st0{fill:#9E9E9E;}
</style>
<g>
	<g>
		<g>
			<path class="st0" d="M1237.1,2085.4h-43.7v-175.3h-65.9v-43.9h175.3v43.9h-65.7V2085.4z"/>
			<path class="st0" d="M1468.5,2085.4h-150.2v-219.2h150.2v43.9h-106.4v43.9h72v43.9h-72v43.7h106.4V2085.4z"/>
			<path class="st0" d="M1654.8,2062.9c-10.2,8.8-21.6,15.5-34.2,20.2c-12.6,4.7-25.7,7-39.3,7c-10.4,0-20.4-1.4-30-4.1
				c-9.6-2.7-18.6-6.5-27-11.5c-8.4-4.9-16.1-10.9-23-17.8c-6.9-6.9-12.9-14.6-17.8-23c-4.9-8.4-8.8-17.4-11.5-27.1
				c-2.7-9.6-4.1-19.6-4.1-30c0-10.4,1.3-20.4,4.1-30.1c2.7-9.7,6.5-18.7,11.5-27.1c4.9-8.4,10.9-16.1,17.8-23
				c6.9-6.9,14.6-12.9,23-17.8c8.4-4.9,17.4-8.8,27-11.5c9.6-2.7,19.6-4,30-4c13.5,0,26.6,2.3,39.3,7c12.6,4.6,24,11.4,34.2,20.2
				l-23.2,38.2c-6.4-6.9-14-12.3-22.8-16c-8.8-3.7-17.9-5.6-27.5-5.6c-9.7,0-18.7,1.8-27.2,5.5c-8.5,3.7-15.8,8.6-22.2,14.9
				c-6.3,6.3-11.3,13.7-15,22.2c-3.7,8.5-5.5,17.5-5.5,27.1c0,9.6,1.8,18.6,5.5,27c3.7,8.4,8.7,15.8,15,22.1
				c6.3,6.3,13.7,11.3,22.2,15c8.5,3.7,17.5,5.5,27.2,5.5c9.6,0,18.7-1.9,27.5-5.6c8.8-3.7,16.4-9,22.8-16L1654.8,2062.9z"/>
			<path class="st0" d="M1716.2,2085.4h-43.9v-219.2h43.9v87.7h87.6v-87.7h43.9v219.2h-43.9v-87.6h-87.6V2085.4z"/>
			<path class="st0" d="M1861.3,1932c0-9.1,1.7-17.6,5.2-25.5c3.5-7.9,8.2-14.9,14.1-20.9c6-6,12.9-10.7,20.9-14.1
				c7.9-3.5,16.5-5.2,25.5-5.2h100.6v43.9h-100.6c-3.1,0-5.9,0.6-8.6,1.7c-2.7,1.1-5,2.7-7,4.7c-2,2-3.5,4.3-4.7,7
				c-1.1,2.7-1.7,5.5-1.7,8.6c0,3.1,0.6,5.9,1.7,8.6c1.1,2.7,2.7,5,4.7,7c2,2,4.3,3.5,7,4.7c2.6,1.1,5.5,1.7,8.6,1.7h43.9
				c9.1,0,17.6,1.7,25.6,5.1c8,3.4,15,8.1,20.9,14.1c6,6,10.6,12.9,14.1,20.9c3.4,8,5.1,16.5,5.1,25.6c0,9.1-1.7,17.6-5.1,25.5
				c-3.4,7.9-8.1,14.9-14.1,20.9s-12.9,10.7-20.9,14.1c-8,3.5-16.5,5.2-25.6,5.2h-97.3v-43.9h97.3c3.1,0,5.9-0.6,8.6-1.7
				c2.6-1.1,5-2.7,7-4.7c2-2,3.5-4.3,4.7-7c1.1-2.6,1.7-5.5,1.7-8.6c0-3.1-0.6-5.9-1.7-8.6c-1.1-2.6-2.7-5-4.7-7c-2-2-4.3-3.5-7-4.7
				c-2.7-1.1-5.5-1.7-8.6-1.7h-43.9c-9.1,0-17.6-1.7-25.5-5.2c-7.9-3.5-14.9-8.2-20.9-14.1c-6-6-10.7-12.9-14.1-20.9
				C1863.1,1949.6,1861.3,1941,1861.3,1932z"/>
		</g>
	</g>
	<g>
		<g>
			<path class="st0" d="M391.6,1858.8c-63.6,0-115.1,51.5-115.1,115.1c0,63.6,51.5,115.1,115.1,115.1h38.5
				c29.5-1.6,35.5-31.4,35.5-31.4l15.8,31.4h25.3v-115.1C506.7,1910.3,455.2,1858.8,391.6,1858.8z M460.6,2042.9h-68.9
				c-38.1,0-68.9-30.9-68.9-69c0-38.1,30.9-68.9,68.9-68.9c38.1,0,68.9,30.9,68.9,68.9V2042.9z"/>
			<path class="st0" d="M887.6,1864.8c-28,0-53.6,10-73.5,26.6c-1-2-14.1-26.6-31.6-26.6h-10v115.1v55.6v52h46.2v-38.6h0v-69
				c0-38,30.8-68.9,68.8-68.9h0.1c5.2,0,10.3,0.6,15.2,1.7l12-44.6C906,1865.9,896.9,1864.8,887.6,1864.8z"/>
			<path class="st0" d="M1013.6,1858.8c-63.6,0-115.1,51.5-115.1,115.1c0,63.6,51.5,115.1,115.1,115.1
				c63.6,0,115.1-51.5,115.1-115.1C1128.7,1910.3,1077.2,1858.8,1013.6,1858.8z M1013.6,2044.5c-39,0-70.6-31.6-70.6-70.6
				c0-39,31.6-70.6,70.6-70.6c39,0,70.6,31.6,70.6,70.6C1084.2,2012.9,1052.6,2044.5,1013.6,2044.5z"/>
			<path class="st0" d="M749.4,1973.9c0-63.6-51.5-115.1-115.1-115.1s-115.1,51.5-115.1,115.1c0,63.6,51.5,115.1,115.1,115.1h38.5
				c16.4-0.9,25.5-10.5,30.4-18.9v18.9v68.9c0,6.2-0.8,12.3-2.4,18l25.5,51.1c14.5-19.2,23-43.2,23-69.1V2089l0,0V1973.9z
				 M634.2,2042.9c-38.1,0-68.9-30.9-68.9-69c0-38.1,30.9-68.9,68.9-68.9c38.1,0,68.9,30.9,68.9,68.9v69l0,0H634.2z"/>
		</g>
	</g>
</g>
<g>
	<path class="st0" d="M838.7,834.1c11.7-11.7,28.4-15.4,43.3-11.2l90.8-90.8v-38.4c-2.3-1.6-4.6-3.4-6.6-5.5
		c-17.2-17.2-17.2-45,0-62.2c17.2-17.2,45-17.2,62.2,0c10.4,10.4,14.5,24.8,12.3,38.3l83.2-83.2c2.4-13.7,13.2-24.6,27-27
		l198.5-198.5C1141.9,178,1070.4,240.4,771.6,539.1l-10.5,10.5c-146,146.1-194.3,352.8-144.9,539.1l211.3-211.3
		C823.3,862.5,827,845.8,838.7,834.1z"/>
	<g>
		<path class="st0" d="M1156.6,553.6c18.3,0,33.2,14.9,33.2,33.2l0,322.6l101.6-101.6v-50.9c-2.3-1.6-4.6-3.4-6.7-5.5
			c-17.2-17.2-17.2-45,0-62.2c17.2-17.2,45-17.2,62.2,0c17.2,17.2,17.2,45,0,62.2c-2.1,2.1-4.3,3.9-6.7,5.5v1.9l210.5-210.4
			c-81.3-81.3-146.2-145.6-201.4-192.8l-198.5,198.5C1152.7,553.8,1154.6,553.6,1156.6,553.6z"/>
		<path class="st0" d="M894.3,901.7l0,178.6l62.2,62.2l122.3-122.3L980,921.4c-0.6-0.6-1.1-1.2-1.6-1.8c-0.2-0.3-0.4-0.5-0.6-0.8
			c-0.3-0.4-0.6-0.7-0.8-1.1c-0.2-0.3-0.4-0.7-0.6-1c-0.2-0.3-0.4-0.7-0.6-1c-0.2-0.3-0.3-0.7-0.5-1.1c-0.2-0.4-0.4-0.7-0.5-1.1
			c-0.1-0.4-0.3-0.7-0.4-1.1c-0.1-0.4-0.3-0.8-0.4-1.2c-0.1-0.4-0.2-0.7-0.3-1.1c-0.1-0.4-0.2-0.8-0.3-1.2c-0.1-0.4-0.1-0.8-0.2-1.2
			c0-0.4-0.1-0.7-0.2-1.1c-0.1-0.8-0.1-1.5-0.1-2.3c0,0,0-0.1,0-0.1v-172L882,822.9c6.9,2,13.5,5.7,18.9,11.2
			c17.2,17.2,17.2,45,0,62.2C898.9,898.4,896.7,900.2,894.3,901.7z"/>
		<path class="st0" d="M1123.9,581l-83.2,83.2c-1.4,8.8-5.5,17.2-12.3,24c-2.1,2.1-4.3,3.9-6.7,5.5l0,200.3l91.7,91.7l9.9-9.9v-389
			C1123.4,584.8,1123.5,582.9,1123.9,581z"/>
		<path class="st0" d="M852.6,1107.7c-0.6-0.6-1.1-1.2-1.6-1.8c-0.2-0.3-0.4-0.5-0.6-0.8c-0.3-0.4-0.6-0.7-0.8-1.1
			c-0.2-0.3-0.4-0.7-0.6-1c-0.2-0.3-0.4-0.7-0.6-1c-0.2-0.3-0.3-0.7-0.5-1.1c-0.2-0.4-0.4-0.7-0.5-1.1c-0.1-0.3-0.3-0.7-0.4-1.1
			c-0.1-0.4-0.3-0.8-0.4-1.2c-0.1-0.4-0.2-0.7-0.3-1.1c-0.1-0.4-0.2-0.8-0.3-1.2c-0.1-0.4-0.1-0.8-0.2-1.2c-0.1-0.4-0.1-0.7-0.2-1.1
			c-0.1-0.8-0.1-1.5-0.1-2.3c0,0,0,0,0-0.1V901.7c-2.3-1.6-4.6-3.4-6.7-5.5c-5.5-5.5-9.2-12-11.2-18.9l-211.3,211.3
			c24.3,91.6,72.2,178.3,143.9,250.3L922,1177.1L852.6,1107.7z"/>
	</g>
	<g>
		<path class="st0" d="M1340.3,1033.5C1340.3,1033.6,1340.3,1033.6,1340.3,1033.5c0,0.8,0,1.6-0.1,2.4c0,0.4-0.1,0.7-0.2,1.1
			c-0.1,0.4-0.1,0.8-0.2,1.3c-0.1,0.4-0.2,0.8-0.3,1.2c-0.1,0.4-0.2,0.7-0.3,1.1c-0.1,0.4-0.3,0.8-0.4,1.2c-0.1,0.4-0.2,0.7-0.4,1.1
			c-0.2,0.4-0.3,0.7-0.5,1.1c-0.2,0.4-0.3,0.7-0.5,1.1c-0.2,0.3-0.4,0.7-0.6,1c-0.2,0.4-0.4,0.7-0.6,1c-0.2,0.4-0.5,0.7-0.8,1.1
			c-0.2,0.3-0.4,0.6-0.6,0.8c-0.5,0.6-1.1,1.2-1.6,1.8l-143.4,143.4l0,109.3l506.2-506.2c-24.7-90.8-72.7-176.6-144-247.9
			c-0.4-0.4-0.8-0.8-1.1-1.2l-210.5,210.4V1033.5z"/>
		<polygon class="st0" points="1123.4,1309.4 1123.4,1064.8 1078.9,1020.3 956.5,1142.5 		"/>
		<polygon class="st0" points="1189.8,1125 1291.4,1023.4 1291.4,807.7 1189.8,909.3 		"/>
		<polygon class="st0" points="1123.4,975.7 1113.4,985.7 1123.4,995.6 		"/>
		<path class="st0" d="M922,1177.1L760.1,1339c0.4,0.4,0.8,0.8,1.1,1.2l196,196l161.9-161.9L922,1177.1z"/>
	</g>
	<g>
		<polygon class="st0" points="1123.4,1378.5 1119.1,1374.2 957.2,1536.1 1123.4,1702.3 		"/>
		<path class="st0" d="M1695.9,797.4l-506.2,506.2l0,138.5l210.4-210.4c-2.8-13.9,1.3-28.9,12.1-39.7c17.2-17.2,45-17.2,62.2,0
			c17.2,17.2,17.2,45,0,62.2c-10.8,10.8-25.8,14.8-39.7,12l-245,245v186.5l402.4-402.4C1707.3,1152.6,1741.9,966.3,1695.9,797.4z"/>
	</g>
</g>
</svg>
