<?xml version="1.0" ?>
<!DOCTYPE svg  PUBLIC '-//W3C//DTD SVG 1.1//EN'  'http://www.w3.org/Graphics/SVG/1.1/DTD/svg11.dtd'>
<svg enable-background="new 0 0 512 512" height="512px" id="Layer_1" version="1.1" viewBox="0 0 512 512" width="512px" xml:space="preserve" xmlns="http://www.w3.org/2000/svg" xmlns:xlink="http://www.w3.org/1999/xlink"><path d="M437.855,399.907c-2.542-0.011-5.153,0.583-7.595,1.72c-2.751,1.107-5.561,2.363-8.176,3.491l-3.902,1.627l-5.06,2.015  v0.066c-54.942,22.271-112.644,35.334-166.051,36.473c-1.962,0.041-3.924,0.062-5.857,0.062  c-83.962,0.043-152.478-38.905-221.625-77.279c-2.419-1.259-4.853-1.922-7.291-1.922c-3.126-0.01-6.306,1.132-8.62,3.329  c-2.324,2.177-3.701,5.352-3.678,8.576c-0.014,4.207,2.233,8.029,5.39,10.529C70.262,444.935,141.38,497.26,237.011,497.292  c1.871,0,3.757-0.023,5.666-0.066c60.835-1.354,129.656-21.906,183.039-55.471l0.31-0.197c6.985-4.191,13.994-8.91,20.571-14.19  c4.118-3.059,6.931-7.793,6.891-12.745C453.354,405.834,445.904,399.916,437.855,399.907 M511.934,368.785  c-0.19-5.366-1.342-9.416-3.572-12.777l-0.224-0.331l-0.276-0.323c-2.262-2.492-4.409-3.419-6.773-4.435  c-7.008-2.696-17.193-4.147-29.493-4.204c-8.821,0.012-18.578,0.85-28.342,2.998l-0.016-0.672l-9.856,3.313l-0.18,0.06l-5.56,1.799  l0.007,0.272c-6.525,2.685-12.469,6.065-17.976,10.054c-3.424,2.581-6.293,5.96-6.452,11.165c-0.073,2.828,1.354,6.114,3.753,8.024  c2.377,1.939,5.153,2.568,7.585,2.568c0.586,0,1.121-0.029,1.609-0.085l0.463-0.044l0.384-0.072  c4.812-1.001,11.83-1.686,20.028-2.872c7.048-0.759,14.529-1.339,21.002-1.339c4.594-0.015,8.7,0.309,11.527,0.918  c1.407,0.297,2.474,0.657,3.071,0.947c0.193,0.091,0.333,0.169,0.423,0.227c0.107,0.41,0.298,1.396,0.271,2.834  c0.068,5.407-2.259,15.477-5.378,25.245c-3.091,9.841-6.824,19.686-9.306,26.216c-0.58,1.523-0.962,3.169-0.962,4.957  c-0.055,2.657,1.024,5.824,3.308,7.946c2.222,2.117,5.086,2.944,7.519,2.944h0.092c3.639-0.033,6.701-1.462,9.366-3.551  c25.002-22.484,33.691-58.351,34.024-78.563l-0.066-3.211 M283.4,157.079c-14.688,1.117-31.637,2.234-48.591,4.502  c-25.981,3.405-51.974,7.906-73.433,18.083c-41.804,16.949-70.056,53.097-70.056,106.198c0,66.661,42.933,100.559,97.184,100.559  c18.068,0,32.769-2.263,46.304-5.633c21.479-6.792,39.545-19.222,61.031-41.812c12.415,16.948,15.82,24.863,37.271,42.929  c5.656,2.253,11.306,2.253,15.815-1.117c13.579-11.314,37.303-31.652,49.71-42.941c5.673-4.521,4.54-11.31,1.133-16.948  c-12.407-15.813-24.855-29.378-24.855-59.893V159.313c0-42.921,3.406-82.477-28.239-111.837  c-25.971-23.724-66.646-32.768-98.294-32.768h-13.57c-57.612,3.372-118.632,28.225-132.185,99.426  c-2.268,9.047,4.521,12.419,9.043,13.548l63.262,7.907c6.79-1.131,10.171-6.776,11.304-12.408  c5.646-24.865,25.99-37.302,48.577-39.557h4.53c13.563,0,28.24,5.655,36.145,16.95c9.043,13.56,7.915,31.644,7.915,47.463  L283.4,157.079L283.4,157.079z M270.984,291.518c-7.905,15.814-21.485,25.975-36.174,29.379c-2.261,0-5.629,1.137-9.034,1.137  c-24.854,0-39.542-19.221-39.542-47.463c0-36.155,21.461-53.103,48.577-61.01c14.688-3.4,31.642-4.517,48.592-4.517v13.564  C283.4,248.59,284.528,268.913,270.984,291.518" fill="#9E9E9E"/>
</svg>