<svg width="63" height="66" viewBox="0 0 63 66" version="1.1" xmlns="http://www.w3.org/2000/svg" xmlns:xlink="http://www.w3.org/1999/xlink">
<title>brand</title>
<desc>Created using Figma</desc>
<g id="Canvas" transform="translate(-427 -304)">
<g id="brand">
<g id="g10">
<g id="g14">
<g id="g16">
<g id="g22">
<g id="path24">
<use xlink:href="#path0_fill" transform="matrix(1.25 0 0 -1.25 427 351.272)" fill="#525252"/>
</g>
</g>
<g id="g26">
<g id="path28">
<use xlink:href="#path1_fill" transform="matrix(1.25 0 0 -1.25 457.823 332.764)" fill="#525252"/>
</g>
</g>
<g id="g30">
<g id="path32">
<use xlink:href="#path2_fill" transform="matrix(1.25 0 0 -1.25 457.823 369.795)" fill="#525252"/>
</g>
</g>
<g id="g34">
<g id="path36">
<use xlink:href="#path3_fill" transform="matrix(1.25 0 0 -1.25 458.633 332.759)" fill="#525252"/>
</g>
</g>
<g id="g38">
<g id="path40">
<use xlink:href="#path4_fill" transform="matrix(1.25 0 0 -1.25 445.235 349.027)" fill="#525252"/>
</g>
</g>
<g id="g42">
<g id="path44">
<use xlink:href="#path5_fill" transform="matrix(1.25 0 0 -1.25 458.634 353.837)" fill="#525252"/>
</g>
</g>
</g>
</g>
</g>
</g>
</g>
<defs>
<linearGradient id="paint0_linear" x1="0" y1="0" x2="1" y2="0" gradientUnits="userSpaceOnUse" gradientTransform="matrix(25.18 0 0 23.008 0 -11.504)">
<stop offset="0" stop-color="#6089F7"/>
<stop offset="1" stop-color="#B166ED"/>
</linearGradient>
<linearGradient id="paint1_linear" x1="0" y1="0" x2="1" y2="0" gradientUnits="userSpaceOnUse" gradientTransform="matrix(25.181 0 0 23.011 0 -11.5055)">
<stop offset="0" stop-color="#6089F7"/>
<stop offset="1" stop-color="#B166ED"/>
</linearGradient>
<linearGradient id="paint2_linear" x1="0" y1="0" x2="1" y2="0" gradientUnits="userSpaceOnUse" gradientTransform="matrix(25.184 0 0 23.008 0 -11.504)">
<stop offset="0" stop-color="#6089F7"/>
<stop offset="1" stop-color="#B166ED"/>
</linearGradient>
<linearGradient id="paint3_linear" x1="0" y1="0" x2="1" y2="0" gradientUnits="userSpaceOnUse" gradientTransform="matrix(16.813 0 0 10.24 0 -5.12)">
<stop offset="0" stop-color="#6089F7"/>
<stop offset="1" stop-color="#B166ED"/>
</linearGradient>
<linearGradient id="paint4_linear" x1="0" y1="0" x2="1" y2="0" gradientUnits="userSpaceOnUse" gradientTransform="matrix(10.5921 0 0 19.413 0 -9.7065)">
<stop offset="0" stop-color="#6089F7"/>
<stop offset="1" stop-color="#B166ED"/>
</linearGradient>
<linearGradient id="paint5_linear" x1="0" y1="0" x2="1" y2="0" gradientUnits="userSpaceOnUse" gradientTransform="matrix(16.811 0 0 10.242 0 -5.12101)">
<stop offset="0" stop-color="#6089F7"/>
<stop offset="1" stop-color="#B166ED"/>
</linearGradient>
<path id="path0_fill" d="M 16.645 23.008L 8.535 23.008C 6.934 23.008 5.455 22.154 4.655 20.766L 0.6 13.746C -0.2 12.358 -0.2 10.65 0.6 9.262L 4.655 2.239C 5.455 0.855001 6.934 5.79834e-07 8.535 5.79834e-07L 16.645 5.79834e-07C 17.445 5.79834e-07 18.215 0.213 18.884 0.601C 19.556 0.986 20.123 1.547 20.525 2.239L 24.58 9.262C 25.38 10.65 25.38 12.358 24.58 13.746L 20.525 20.766C 20.123 21.462 19.556 22.022 18.884 22.407C 18.215 22.795 17.445 23.008 16.645 23.008ZM 16.645 21.024C 17.083 21.024 17.512 20.909 17.897 20.685C 18.271 20.471 18.586 20.156 18.806 19.773L 22.861 12.755C 23.306 11.983 23.306 11.025 22.861 10.254L 18.809 3.235C 18.587 2.853 18.272 2.538 17.887 2.317C 17.512 2.1 17.083 1.985 16.645 1.985L 8.535 1.985C 7.646 1.985 6.818 2.463 6.373 3.231L 2.319 10.253C 1.874 11.025 1.874 11.983 2.318 12.754L 6.374 19.775C 6.818 20.545 7.646 21.024 8.535 21.024L 16.645 21.024"/>
<path id="path1_fill" d="M 16.646 23.011L 8.539 23.011C 6.935 23.011 5.456 22.157 4.656 20.769L 0.601 13.746C 0.199 13.05 9.15527e-08 12.277 9.15527e-08 11.504C 9.15527e-08 10.731 0.199 9.957 0.601 9.265L 4.656 2.242C 5.456 0.854001 6.935 3.20435e-07 8.539 3.20435e-07L 16.646 3.20435e-07C 17.446 3.20435e-07 18.216 0.213 18.888 0.601C 19.56 0.989 20.127 1.55 20.529 2.242L 24.581 9.265C 25.381 10.65 25.381 12.358 24.581 13.746L 20.529 20.769C 19.729 22.157 18.246 23.011 16.646 23.011ZM 16.646 21.027C 17.537 21.027 18.366 20.548 18.81 19.777L 22.862 12.755C 23.307 11.983 23.307 11.027 22.862 10.257L 18.813 3.238C 18.591 2.855 18.273 2.538 17.895 2.319C 17.516 2.1 17.084 1.984 16.646 1.984L 8.539 1.984C 7.648 1.984 6.819 2.463 6.374 3.234L 2.317 10.261C 2.099 10.636 1.984 11.066 1.984 11.504C 1.984 11.942 2.1 12.374 2.319 12.754L 6.375 19.778C 6.819 20.548 7.648 21.027 8.539 21.027L 16.646 21.027"/>
<path id="path2_fill" d="M 16.646 23.008L 8.536 23.008C 6.935 23.008 5.456 22.154 4.656 20.769L 0.601 13.743C 0.199 13.051 9.15527e-08 12.277 9.15527e-08 11.504C 9.15527e-08 10.731 0.199 9.958 0.601 9.266L 4.656 2.239C 5.456 0.855001 6.935 5.79834e-07 8.536 5.79834e-07L 16.646 5.79834e-07C 18.246 5.79834e-07 19.725 0.855001 20.526 2.239L 24.584 9.266C 25.384 10.65 25.384 12.358 24.584 13.743L 20.526 20.769C 20.127 21.462 19.56 22.019 18.888 22.404C 18.219 22.795 17.446 23.008 16.646 23.008ZM 16.646 21.024C 17.086 21.024 17.514 20.909 17.902 20.682C 18.277 20.467 18.59 20.155 18.807 19.777L 22.866 12.75C 23.31 11.981 23.31 11.027 22.866 10.258L 18.808 3.232C 18.363 2.463 17.535 1.985 16.646 1.985L 8.536 1.985C 7.647 1.985 6.819 2.463 6.375 3.231L 2.317 10.262C 2.099 10.637 1.984 11.067 1.984 11.504C 1.984 11.942 2.099 12.372 2.319 12.751L 6.374 19.776C 6.819 20.546 7.647 21.024 8.536 21.024L 16.646 21.024"/>
<path id="path3_fill" d="M 0.535 8.247C 0.177 8.863 -2.6226e-08 9.551 -2.6226e-08 10.24L 8.908 10.24C 10.333 10.24 11.649 9.482 12.361 8.247L 16.813 0.535C 16.214 0.189 15.529 2.59399e-07 14.817 2.59399e-07L 7.601 2.59399e-07C 6.173 2.59399e-07 4.857 0.76 4.145 1.996L 0.535 8.247Z"/>
<path id="path4_fill" d="M 6.44763 1.46C 6.09263 0.842 5.58563 0.345 4.98963 -3.8147e-08L 0.535625 7.715C -0.177375 8.949 -0.179375 10.468 0.534625 11.702L 4.98763 19.413C 5.58563 19.068 6.09263 18.569 6.44863 17.952L 10.0566 11.703C 10.7706 10.466 10.7706 8.946 10.0566 7.712L 6.44763 1.46Z"/>
<path id="path5_fill" d="M 14.818 10.242C 15.53 10.244 16.215 10.053 16.811 9.709L 12.357 1.994C 11.645 0.761001 10.331 -0.000998643 8.905 1.35688e-06L 1.60217e-07 0.00100081C 1.60217e-07 0.692001 0.179 1.38 0.535 1.997L 4.143 8.246C 4.857 9.483 6.173 10.242 7.599 10.242L 14.818 10.242Z"/>
</defs>
</svg>
