<svg width="53" height="52" viewBox="0 0 53 52" version="1.1" xmlns="http://www.w3.org/2000/svg" xmlns:xlink="http://www.w3.org/1999/xlink">
<title>noun_170941</title>
<desc>Created using Figma</desc>
<g id="Canvas" transform="translate(-185 -1138)">
<g id="noun_170941">
<g id="Vector">
<use xlink:href="#path0_fill" transform="translate(185 1138)" fill="#525252"/>
</g>
</g>
</g>
<defs>
<linearGradient id="paint0_linear" x1="0" y1="0" x2="1" y2="0" gradientUnits="userSpaceOnUse" gradientTransform="matrix(53 0 0 51.3599 0 -25.68)">
<stop offset="0" stop-color="#6089F7"/>
<stop offset="1" stop-color="#B166ED"/>
</linearGradient>
<path id="path0_fill" d="M 46.8824 33.6903L 36.1765 28.0344C 36.8824 26.6493 37.2353 25.091 37.2353 23.4173C 37.2353 20.7048 36.2353 18.2808 34.5294 16.3762L 42.1765 10.4895C 45.4118 14.0677 52.6471 10.9512 50.7647 5.41066C 48.6471 -0.937847 38.8824 2.17869 41 8.52719C 41.1176 8.93119 41.2941 9.33518 41.5294 9.68147L 33.8235 15.6837C 31.8824 13.8946 29.2353 12.7403 26.3529 12.7403C 25.7059 12.7403 25.0588 12.798 24.4118 12.9134L 22.6471 5.29523C 23.5294 4.89123 24.1765 4.02553 24.1765 2.81354C 24.1765 -0.937847 18.4118 -0.937847 18.4118 2.81354C 18.4118 4.83352 20.1176 5.75694 21.6471 5.5838L 23.4118 13.1443C 19.5294 14.2408 16.5294 17.3574 15.7059 21.2819L 9.76471 19.2619C 9.88235 18.8002 9.94118 18.3385 9.94118 17.7614C 9.94118 11.2397 2.08983e-15 11.2397 2.08983e-15 17.7614C 2.08983e-15 23.3019 7.23529 24.1099 9.35294 20.1853L 15.5294 22.263C 15.4706 22.6093 15.4706 23.0133 15.4706 23.4173C 15.4706 26.1299 16.5294 28.6115 18.2353 30.5161L 11.1176 33.6903C 9.47059 30.5738 3.58824 31.1509 3.58824 35.6526C 3.58824 40.8468 11.5294 40.8468 11.5294 35.6526C 11.5294 35.3063 11.4706 35.0178 11.4706 34.7292L 19.0588 31.3241C 21 33.0555 23.5882 34.1521 26.4118 34.1521C 26.7059 34.1521 27.0588 34.1521 27.3529 34.0943L 28.5294 43.444C 27.6471 43.5594 26.8235 44.0211 26.0588 44.9445C 22.7059 48.9845 28.9412 53.8901 32.2941 49.8502C 34.5882 47.0222 32.2941 43.7902 29.5882 43.444L 28.4118 33.9789C 31.5294 33.4018 34.1765 31.5549 35.7647 29.0155L 46.4706 34.6138C 46.4118 34.9023 46.3529 35.2486 46.3529 35.5949C 46.3529 39.9234 53 39.9234 53 35.5949C 52.9412 32.0744 48.5294 31.4395 46.8824 33.6903Z"/>
</defs>
</svg>
