<?xml version="1.0" encoding="UTF-8" standalone="no"?>
<!-- Created with Inkscape (http://www.inkscape.org/) -->

<svg xmlns:dc="http://purl.org/dc/elements/1.1/" xmlns:cc="http://creativecommons.org/ns#" xmlns:rdf="http://www.w3.org/1999/02/22-rdf-syntax-ns#" xmlns:svg="http://www.w3.org/2000/svg" xmlns="http://www.w3.org/2000/svg" xmlns:sodipodi="http://sodipodi.sourceforge.net/DTD/sodipodi-0.dtd" xmlns:inkscape="http://www.inkscape.org/namespaces/inkscape" id="svg2" xml:space="preserve" height="65.800003" viewBox="0 0 65.800531 65.800499" width="65.800003" version="1.1" sodipodi:docname="logo_icon_square.svg" inkscape:version="0.92.1 unknown">
	<g id="g10" transform="matrix(1.25,0,0,-1.25,-44.407,155.99)" fill="#ffffff">
		<g id="g14">
			<g id="g16">
				<g id="g22" transform="translate(52.17,109.98)">
					<path id="path24" d="m 0,0 h -8.11 c -1.601,0 -3.08,-0.854 -3.88,-2.242 l -4.055,-7.02 c -0.8,-1.388 -0.8,-3.096 0,-4.484 l 4.055,-7.023 c 0.8,-1.384 2.279,-2.239 3.88,-2.239 H 0 c 0.8,0 1.57,0.213 2.239,0.601 0.672,0.385 1.239,0.946 1.641,1.638 l 4.055,7.023 c 0.8,1.388 0.8,3.096 0,4.484 L 3.88,-2.242 C 3.478,-1.546 2.911,-0.986 2.239,-0.601 1.57,-0.213 0.8,0 0,0 m 0,-1.984 c 0.438,0 0.867,-0.115 1.252,-0.339 0.374,-0.214 0.689,-0.529 0.909,-0.912 l 4.055,-7.018 c 0.445,-0.772 0.445,-1.73 0,-2.501 L 2.164,-19.773 C 1.942,-20.155 1.627,-20.47 1.242,-20.691 0.867,-20.908 0.438,-21.023 0,-21.023 h -8.11 c -0.889,0 -1.717,0.478 -2.162,1.246 l -4.054,7.022 c -0.445,0.772 -0.445,1.73 -10e-4,2.501 l 4.056,7.021 c 0.444,0.77 1.272,1.249 2.161,1.249 H 0" inkscape:connector-curvature="0" />
				</g>
				<g id="g26" transform="translate(76.829,124.79)">
					<path id="path28" d="m 0,0 h -8.107 c -1.604,0 -3.083,-0.854 -3.883,-2.242 l -4.055,-7.023 c -0.402,-0.696 -0.601,-1.469 -0.601,-2.242 0,-0.773 0.199,-1.547 0.601,-2.239 l 4.055,-7.023 c 0.8,-1.388 2.279,-2.242 3.883,-2.242 H 0 c 0.8,0 1.57,0.213 2.242,0.601 0.672,0.388 1.239,0.949 1.641,1.641 l 4.052,7.023 c 0.8,1.385 0.8,3.093 0,4.481 L 3.883,-2.242 C 3.083,-0.854 1.6,0 0,0 m 0,-1.984 c 0.891,0 1.72,-0.479 2.164,-1.25 l 4.052,-7.022 c 0.445,-0.772 0.445,-1.728 0,-2.498 l -4.049,-7.019 c -0.222,-0.383 -0.54,-0.7 -0.918,-0.919 C 0.87,-20.911 0.438,-21.027 0,-21.027 h -8.107 c -0.891,0 -1.72,0.479 -2.165,1.25 l -4.057,7.027 c -0.218,0.375 -0.333,0.805 -0.333,1.243 0,0.438 0.116,0.87 0.335,1.25 l 4.056,7.024 c 0.444,0.77 1.273,1.249 2.164,1.249 H 0" inkscape:connector-curvature="0" />
				</g>
				<g id="g30" transform="translate(76.829,95.162)">
					<path id="path32" d="m 0,0 h -8.11 c -1.601,0 -3.08,-0.854 -3.88,-2.239 l -4.055,-7.026 c -0.402,-0.692 -0.601,-1.466 -0.601,-2.239 0,-0.773 0.199,-1.546 0.601,-2.238 l 4.055,-7.027 c 0.8,-1.384 2.279,-2.239 3.88,-2.239 H 0 c 1.6,0 3.079,0.855 3.88,2.239 l 4.058,7.027 c 0.8,1.384 0.8,3.092 0,4.477 L 3.88,-2.239 C 3.481,-1.546 2.914,-0.989 2.242,-0.604 1.573,-0.213 0.8,0 0,0 m 0,-1.984 c 0.44,0 0.868,-0.115 1.256,-0.342 0.375,-0.215 0.688,-0.527 0.905,-0.905 l 4.059,-7.027 c 0.444,-0.769 0.444,-1.723 0,-2.492 L 2.162,-19.776 C 1.717,-20.545 0.889,-21.023 0,-21.023 h -8.11 c -0.889,0 -1.717,0.478 -2.161,1.246 l -4.058,7.031 c -0.218,0.375 -0.333,0.805 -0.333,1.242 0,0.438 0.115,0.868 0.335,1.247 l 4.055,7.025 c 0.445,0.77 1.273,1.248 2.162,1.248 H 0" inkscape:connector-curvature="0" />
				</g>
				<g id="g34" transform="translate(61.366,110.03)">
					<path id="path36" d="m 0,0 c -0.358,0.616 -0.535,1.304 -0.535,1.993 h 8.908 c 1.425,0 2.741,-0.758 3.453,-1.993 l 4.452,-7.712 C 15.679,-8.058 14.994,-8.247 14.282,-8.247 H 7.066 c -1.428,0 -2.744,0.76 -3.456,1.996 z" inkscape:connector-curvature="0" />
				</g>
				<g id="g38" transform="translate(56.561,90.228)">
					<path id="path40" d="m 0,0 c -0.355,-0.618 -0.862,-1.115 -1.458,-1.46 l -4.454,7.715 c -0.713,1.234 -0.715,2.753 -0.001,3.987 l 4.453,7.711 c 0.598,-0.345 1.105,-0.844 1.461,-1.461 l 3.608,-6.249 c 0.714,-1.237 0.714,-2.757 0,-3.991 z" inkscape:connector-curvature="0" />
				</g>
				<g id="g42" transform="translate(75.65,95.162)">
					<path id="path44" d="m 0,0 c 0.712,0.002 1.397,-0.189 1.993,-0.533 l -4.454,-7.715 c -0.712,-1.233 -2.026,-1.995 -3.452,-1.994 l -8.905,0.001 c 0,0.691 0.179,1.379 0.535,1.996 l 3.608,6.249 C -9.961,-0.759 -8.645,0 -7.219,0 Z" inkscape:connector-curvature="0" />
				</g>
			</g>
		</g>
	</g>
</svg>